<?xml version="1.0" standalone="no"?>
<!DOCTYPE svg PUBLIC "-//W3C//DTD SVG 20010904//EN"
 "http://www.w3.org/TR/2001/REC-SVG-20010904/DTD/svg10.dtd">
<svg version="1.0" xmlns="http://www.w3.org/2000/svg"
 width="1320.000000pt" height="1000.000000pt" viewBox="0 0 1320.000000 1000.000000"
 preserveAspectRatio="xMidYMid meet">

<g transform="translate(0.000000,1000.000000) scale(0.100000,-0.100000)"
fill="#000000" stroke="none">
<path d="M855 5906 c-161 -22 -259 -61 -405 -159 -124 -83 -268 -261 -349
-431 -28 -60 -81 -219 -81 -246 0 -6 20 -10 45 -10 29 0 45 -5 46 -12 1 -7 0
-47 -1 -89 -3 -114 17 -209 64 -308 31 -67 163 -174 256 -209 170 -64 408 -67
625 -7 28 8 61 16 75 19 24 4 46 11 135 43 64 24 69 28 78 64 5 19 14 57 22
84 7 28 21 86 30 130 10 44 24 100 31 125 7 25 16 69 20 98 l7 52 -41 0 c-23
0 -44 4 -47 10 -5 8 2 49 32 188 l5 22 -355 0 -354 0 -11 -42 c-14 -56 -32
-147 -32 -159 0 -5 21 -9 46 -9 l46 0 -7 -52 c-4 -29 -11 -60 -16 -69 -4 -9
-5 -19 -2 -23 3 -3 53 -6 109 -6 57 0 105 -4 108 -9 10 -16 -15 -136 -31 -148
-35 -26 -185 -9 -254 29 -20 11 -43 32 -51 46 -23 39 -48 143 -45 188 2 34 -1
39 -18 37 -11 -2 -30 0 -42 2 -30 7 -30 46 -2 117 76 193 224 326 405 364 87
18 138 18 208 0 90 -24 126 -53 149 -121 l14 -40 72 -5 c43 -3 76 -1 81 5 8
10 20 59 59 245 11 47 22 99 26 116 l7 31 -104 45 c-128 56 -226 84 -343 98
-104 11 -93 12 -210 -4z"/>
<path d="M8700 5905 c-234 -39 -399 -130 -495 -274 -108 -164 -125 -374 -39
-488 21 -28 32 -33 65 -33 25 0 54 -9 78 -24 21 -14 56 -32 77 -41 52 -22 242
-85 255 -85 24 0 120 -53 130 -72 25 -47 -29 -115 -113 -142 -64 -20 -95 -20
-188 3 -124 30 -189 74 -221 148 l-19 44 -72 -3 -72 -3 -19 -90 c-10 -49 -22
-106 -27 -125 -39 -162 -40 -174 -22 -185 38 -22 207 -85 229 -85 13 0 38 -6
56 -14 47 -19 246 -29 347 -17 192 23 344 93 463 214 123 125 187 255 187 381
0 71 -8 83 -59 88 -28 2 -38 10 -56 43 -60 107 -136 148 -427 230 -82 23 -122
53 -126 94 -7 66 64 111 174 111 121 0 253 -56 289 -123 19 -36 22 -37 78 -38
31 -1 63 -2 69 -3 15 -1 33 49 54 149 8 39 21 99 29 135 23 105 23 104 -47
133 -93 38 -200 64 -316 76 -123 13 -164 12 -262 -4z"/>
<path d="M7285 5560 c-204 -26 -431 -184 -540 -375 -25 -44 -45 -85 -45 -92 0
-8 14 -13 39 -13 22 0 42 -4 46 -10 3 -5 -2 -40 -11 -77 -47 -198 -14 -346
102 -452 82 -75 139 -103 259 -126 169 -33 389 -5 551 71 l70 33 32 129 c18
71 32 132 32 136 0 3 -29 6 -65 6 -54 0 -73 -5 -112 -29 -35 -21 -74 -33 -145
-44 -88 -14 -102 -14 -155 0 -32 9 -68 23 -81 31 -30 20 -65 88 -57 113 6 18
18 19 329 19 l323 0 21 86 c12 48 19 91 16 95 -3 5 -23 9 -44 9 -21 0 -42 5
-46 11 -4 7 -6 48 -5 93 6 282 -187 427 -514 386z m90 -295 c55 -17 85 -46 85
-85 0 -19 -6 -20 -155 -20 -147 0 -155 1 -155 19 0 22 46 58 105 82 52 22 57
22 120 4z"/>
<path d="M2020 5540 c-52 -9 -117 -23 -145 -30 -27 -7 -55 -14 -61 -16 -7 -1
-17 -29 -23 -61 -10 -54 -28 -128 -49 -215 -5 -20 -7 -39 -4 -42 13 -14 57 -3
120 29 100 51 186 75 267 75 85 0 119 -20 113 -66 -3 -27 -6 -29 -53 -32 -123
-6 -290 -47 -336 -83 l-24 -19 23 0 c33 0 27 -14 -28 -60 -111 -93 -170 -231
-155 -366 6 -55 12 -69 47 -109 22 -25 61 -56 87 -69 50 -25 222 -53 243 -40
7 5 145 7 306 6 235 -3 293 -1 296 10 2 7 21 85 41 173 20 88 41 171 46 185 4
14 11 43 15 65 3 22 12 62 20 89 8 27 14 62 14 78 0 26 -2 28 -44 28 -53 0
-57 8 -39 75 7 28 14 82 14 122 1 147 -78 231 -257 278 -79 20 -309 18 -434
-5z m272 -616 c4 -3 2 -20 -3 -37 -5 -18 -14 -59 -19 -92 -11 -69 -34 -95 -85
-95 -37 0 -81 35 -90 73 -11 41 36 104 98 133 50 23 88 30 99 18z"/>
<path d="M4350 5545 c-47 -7 -119 -22 -160 -33 -62 -16 -76 -23 -82 -43 -4
-13 -14 -48 -22 -78 -9 -29 -16 -64 -16 -78 0 -13 -4 -32 -9 -41 -5 -9 -12
-36 -16 -59 -7 -43 -7 -43 25 -43 17 0 66 18 108 39 137 70 274 92 341 54 60
-35 41 -83 -32 -83 -51 0 -203 -24 -237 -38 -84 -33 -110 -46 -110 -54 0 -4 9
-8 20 -8 31 0 24 -12 -35 -63 -108 -94 -150 -185 -150 -323 0 -88 1 -92 35
-137 19 -25 57 -58 84 -73 62 -34 190 -57 266 -47 30 4 174 7 320 8 l265 0 13
40 c7 22 22 81 32 130 11 50 26 117 34 150 9 33 20 83 27 110 6 28 17 75 25
106 22 86 21 89 -30 89 -25 0 -47 4 -50 9 -3 5 -1 31 5 57 6 27 13 81 15 119
4 64 2 76 -28 135 -28 54 -42 70 -88 98 -91 54 -138 65 -310 68 -99 2 -186 -2
-240 -11z m247 -644 c-3 -14 -10 -55 -17 -91 -18 -104 -72 -138 -141 -89 -25
18 -29 27 -29 69 0 40 5 53 29 78 31 31 128 73 149 64 9 -3 12 -15 9 -31z"/>
<path d="M5773 5543 c-180 -36 -342 -179 -439 -386 -34 -73 -32 -77 26 -77 57
0 57 0 35 -80 -20 -75 -20 -251 1 -321 30 -101 78 -160 171 -208 54 -27 210
-30 273 -5 82 33 73 -27 -12 -83 -38 -26 -49 -28 -142 -28 -98 0 -103 1 -150
33 -37 25 -63 34 -111 39 -73 7 -66 15 -90 -117 -8 -47 -19 -103 -25 -125 -16
-67 -13 -94 13 -99 12 -3 95 -10 185 -16 120 -8 188 -8 260 0 99 12 239 45
256 61 6 5 16 9 23 9 25 0 152 101 204 163 90 107 110 161 208 577 16 69 32
140 36 158 l7 32 -47 0 c-30 0 -47 5 -51 14 -5 14 10 95 40 211 33 127 46 185
46 209 l0 26 -214 0 c-138 0 -225 4 -243 11 -38 16 -188 17 -260 2z m193 -358
c-3 -19 -9 -51 -12 -70 l-7 -35 46 0 c25 0 49 -5 52 -10 3 -6 -3 -45 -13 -88
-11 -42 -23 -93 -26 -113 -7 -41 -18 -53 -57 -63 -42 -9 -84 11 -102 50 -21
43 -21 75 -2 138 22 72 21 76 -24 76 -51 0 -58 12 -31 55 36 58 89 94 139 95
l44 0 -7 -35z"/>
<path d="M11495 5553 c-11 -2 -53 -16 -94 -29 -66 -22 -75 -23 -91 -9 -14 12
-52 15 -227 15 -157 0 -213 -3 -220 -12 -6 -7 -15 -35 -21 -63 -9 -45 -33
-155 -63 -285 -6 -25 -11 -56 -12 -70 -2 -22 1 -25 29 -22 36 4 59 -18 49 -47
-3 -11 -8 -28 -10 -38 -2 -10 -11 -52 -20 -93 -10 -41 -23 -102 -30 -135 -16
-77 -33 -147 -51 -209 -8 -26 -14 -64 -14 -82 l0 -34 222 2 223 3 7 35 c4 19
16 73 27 120 12 47 26 110 32 140 5 30 14 69 19 85 25 81 52 215 47 229 -4 10
-19 16 -41 16 -36 0 -50 17 -35 41 5 8 9 26 9 42 0 29 28 47 75 47 41 0 57
-26 50 -82 l-7 -49 36 6 c61 12 65 0 44 -112 -10 -54 -23 -113 -29 -130 -5
-18 -14 -54 -19 -80 -11 -60 -28 -133 -45 -198 -7 -27 -16 -65 -19 -83 l-6
-32 228 2 227 3 3 25 c2 14 9 45 17 70 7 25 19 68 25 95 22 98 38 171 60 270
13 55 23 114 24 130 1 27 -2 30 -31 30 -43 0 -58 16 -43 44 17 32 25 218 11
268 -29 107 -124 176 -246 180 -38 1 -79 -1 -90 -4z"/>
<path d="M12685 5539 c-155 -19 -305 -99 -426 -226 -57 -59 -132 -178 -144
-226 -7 -26 -6 -27 35 -27 l42 0 -7 -62 c-4 -35 -11 -73 -16 -86 -5 -13 -9
-62 -9 -110 0 -86 14 -153 43 -208 21 -40 90 -108 129 -127 107 -51 114 -52
308 -51 144 1 195 5 229 18 24 9 55 16 70 16 15 0 35 6 46 14 11 7 37 16 57
20 41 7 48 22 67 129 6 32 13 62 16 67 3 6 10 33 15 62 5 29 12 63 16 76 6 21
5 22 -72 22 -78 0 -79 0 -107 -35 -62 -78 -220 -116 -284 -69 -49 36 -65 79
-59 159 3 39 12 90 20 113 l15 42 -32 0 c-18 0 -38 4 -45 9 -39 24 85 149 169
170 93 24 173 -18 193 -101 6 -27 8 -28 80 -28 47 0 77 5 83 13 5 6 17 48 26
92 9 44 23 109 32 145 8 36 16 71 18 79 4 28 -158 93 -278 111 -81 11 -132 11
-230 -1z"/>
<path d="M3075 5503 c-3 -16 -10 -48 -16 -73 -6 -25 -17 -72 -24 -105 -7 -33
-22 -99 -33 -147 -11 -48 -17 -90 -14 -93 3 -3 18 -5 34 -5 35 0 44 -20 30
-68 -10 -37 -17 -65 -52 -222 -40 -185 -50 -226 -60 -260 -5 -19 -10 -47 -10
-63 l0 -27 222 2 221 3 13 60 c32 144 54 245 69 305 15 58 36 155 52 233 5 25
3 27 -30 27 -42 0 -54 21 -31 58 22 37 76 62 133 62 38 0 52 -5 71 -25 20 -21
33 -25 82 -25 32 0 58 3 58 7 0 5 30 145 74 346 2 10 -4 22 -14 27 -32 17
-161 11 -239 -10 -60 -17 -76 -18 -82 -8 -5 7 -9 16 -9 21 0 4 -99 7 -220 7
l-220 0 -5 -27z"/>
<path d="M9458 5525 c-3 -3 -1 -27 3 -53 4 -26 15 -110 23 -187 22 -191 24
-199 67 -203 48 -5 55 -14 63 -80 4 -31 11 -82 16 -112 12 -71 38 -262 43
-321 5 -53 12 -38 -148 -305 -55 -92 -101 -171 -103 -176 -2 -4 102 -8 231 -8
l235 0 22 38 c12 20 92 156 178 302 85 146 162 277 171 292 46 78 128 214 143
237 29 45 58 101 58 111 0 6 -13 10 -30 10 -24 0 -30 4 -30 22 0 12 6 29 14
37 7 9 31 48 51 86 21 39 43 77 50 85 20 24 113 187 120 210 6 20 5 20 -221
18 l-227 -3 -22 -40 c-11 -22 -50 -94 -85 -160 -36 -66 -71 -133 -80 -149 -8
-17 -20 -31 -26 -33 -12 -4 -30 113 -39 257 -4 52 -9 103 -11 113 -5 16 -25
17 -233 17 -125 0 -230 -2 -233 -5z"/>
</g>
</svg>
